<svg xmlns="http://www.w3.org/2000/svg" viewBox="0 0 147.55 34.65"><defs><style>.cls-1{fill:#994339;}.cls-2{fill:#501919;}.cls-3{fill:#f0cd89;}.cls-4{fill:none;stroke:#501919;stroke-linecap:round;stroke-miterlimit:10;stroke-width:0.75px;}.cls-5{fill:#010101;}</style></defs><g id="Layer_2" data-name="Layer 2"><g id="Layer_1-2" data-name="Layer 1"><path class="cls-1" d="M.66,6.7c-2.45,2.71,2.6,24.68,4.23,26.66s137.29,1.6,138.9-.58,5.61-24.63,2.76-26.61S3.69,3.33.66,6.7Z"/><path class="cls-2" d="M2.79,6.11l-.53.08L.06,8.68c0,.18,0,.37,0,.57Z"/><path class="cls-2" d="M5.82,5.77l-.5.05L.06,11.77l0,.47Z"/><path class="cls-2" d="M8.74,5.55l-.48,0-7.93,9c0,.15,0,.3,0,.45Z"/><path class="cls-2" d="M11.62,5.39l-.48,0L.7,17.21c0,.14.05.29.07.43Z"/><path class="cls-2" d="M14.47,5.25l-.48,0L1.15,19.79c0,.14.05.28.08.42Z"/><path class="cls-2" d="M17.3,5.14h-.47L1.65,22.31l.09.41Z"/><path class="cls-2" d="M20.11,5h-.47L2.19,24.78l.1.4Z"/><path class="cls-2" d="M22.92,5l-.47,0L2.78,27.19c0,.14.07.27.11.4Z"/><path class="cls-2" d="M25.71,4.88h-.46L3.43,29.55c0,.13.08.26.11.38Z"/><path class="cls-2" d="M28.5,4.81H28l-23.88,27,.14.36Z"/><path class="cls-2" d="M31.28,4.76h-.46L5.36,33.53l.4.07Z"/><path class="cls-2" d="M34.06,4.7h-.47L7.85,33.8l.43,0Z"/><path class="cls-2" d="M36.83,4.66h-.47L10.44,34l.44,0Z"/><path class="cls-2" d="M39.59,4.62h-.46L13.07,34.07l.44,0Z"/><path class="cls-2" d="M15.72,34.16l.44,0L42.35,4.58h-.46Z"/><path class="cls-2" d="M18.38,34.24h.45L45.11,4.55h-.46Z"/><path class="cls-2" d="M21.06,34.3h.44L47.86,4.52H47.4Z"/><path class="cls-2" d="M23.74,34.36h.44L50.61,4.5h-.46Z"/><path class="cls-2" d="M26.42,34.4h.45L53.36,4.48H52.9Z"/><path class="cls-2" d="M29.12,34.45h.45l26.53-30h-.46Z"/><path class="cls-2" d="M31.81,34.48h.45l26.58-30h-.46Z"/><path class="cls-2" d="M34.51,34.51H35L61.58,4.44h-.46Z"/><path class="cls-2" d="M37.22,34.54h.45L64.32,4.43h-.46Z"/><path class="cls-2" d="M39.92,34.57h.46L67.05,4.43h-.46Z"/><path class="cls-2" d="M42.64,34.59h.45L69.78,4.43h-.46Z"/><path class="cls-2" d="M45.35,34.6h.45L72.51,4.43h-.46Z"/><path class="cls-2" d="M48.07,34.62h.45L75.23,4.43h-.45Z"/><path class="cls-2" d="M50.78,34.63h.46L78,4.44H77.5Z"/><path class="cls-2" d="M53.5,34.64H54L80.68,4.45h-.46Z"/><path class="cls-2" d="M56.23,34.65h.45L83.4,4.46h-.46Z"/><path class="cls-2" d="M59,34.65h.46L86.12,4.47h-.46Z"/><path class="cls-2" d="M61.68,34.65h.46L88.83,4.49h-.45Z"/><path class="cls-2" d="M64.41,34.65h.46L91.54,4.51h-.45Z"/><path class="cls-2" d="M67.14,34.65h.46L94.25,4.53H93.8Z"/><path class="cls-2" d="M69.88,34.64h.45L97,4.55h-.45Z"/><path class="cls-2" d="M72.61,34.64h.46L99.67,4.58h-.46Z"/><path class="cls-2" d="M75.35,34.63h.46l26.56-30h-.45Z"/><path class="cls-2" d="M78.09,34.62h.46l26.52-30h-.45Z"/><path class="cls-2" d="M80.83,34.6h.46L107.77,4.68h-.45Z"/><path class="cls-2" d="M83.57,34.59H84L110.46,4.71H110Z"/><path class="cls-2" d="M86.32,34.57h.46l26.37-29.8h-.45Z"/><path class="cls-2" d="M89.07,34.55h.46L115.84,4.8h-.45Z"/><path class="cls-2" d="M91.82,34.52h.46L118.53,4.85h-.45Z"/><path class="cls-2" d="M94.57,34.5H95L121.21,4.91h-.45Z"/><path class="cls-2" d="M97.32,34.47h.46L123.88,5h-.44Z"/><path class="cls-2" d="M100.08,34.44h.46l26-29.4h-.45Z"/><path class="cls-2" d="M102.84,34.4h.46L129.22,5.1h-.44Z"/><path class="cls-2" d="M105.6,34.37h.46L131.88,5.19l-.44,0Z"/><path class="cls-2" d="M108.37,34.33h.46l25.7-29-.44,0Z"/><path class="cls-2" d="M111.13,34.28h.47L137.17,5.38l-.44,0Z"/><path class="cls-2" d="M113.91,34.23h.46L139.79,5.5l-.44,0Z"/><path class="cls-2" d="M116.68,34.18h.47L142.38,5.65l-.43,0Z"/><path class="cls-2" d="M119.47,34.12h.46l25-28.25-.41,0Z"/><path class="cls-2" d="M122.25,34.05h.47L147,6.66a1.64,1.64,0,0,0-.2-.29Z"/><path class="cls-2" d="M125.05,34h.46l22-24.83c0-.17,0-.32-.05-.47Z"/><path class="cls-2" d="M127.85,33.9h.47l19.2-21.71c0-.18,0-.36,0-.53Z"/><path class="cls-2" d="M130.66,33.81l.47,0,16.16-18.27.06-.57Z"/><path class="cls-2" d="M147,18.46,133.48,33.7l.48,0,12.92-14.61C146.91,18.87,146.94,18.67,147,18.46Z"/><path class="cls-2" d="M136.33,33.57l.47,0,9.52-10.75c0-.22.07-.43.1-.64Z"/><path class="cls-2" d="M139.2,33.4l.49,0,5.88-6.65c.05-.22.1-.45.14-.67Z"/><path class="cls-2" d="M142.16,33.15l.51-.07L144.51,31c.07-.23.15-.49.22-.76Z"/><path class="cls-3" d="M.66,2.27C-1.79,5,3.26,27,4.89,28.94s137.29,1.59,138.9-.59,5.61-24.62,2.76-26.6S3.69-1.1.66,2.27Z"/><path class="cls-4" d="M4.89,28.94c1.63,2,137.29,1.59,138.9-.59"/><path class="cls-5" d="M23.47,19.53a5.06,5.06,0,0,1-2.09-.46,3.62,3.62,0,0,1-.75-.47,2.5,2.5,0,0,1-1-1.59,2.17,2.17,0,0,0-.07-.24,3.68,3.68,0,0,1-.23-1.37c0-.08,0-.16,0-.24A4.08,4.08,0,0,1,19.87,13a3.93,3.93,0,0,1,2-1.5,2.84,2.84,0,0,1,1-.23h.2a1.59,1.59,0,0,0,.5-.08l.3,0,.42,0c.18,0,.38,0,.58.05a2.36,2.36,0,0,1,.45.07,2.32,2.32,0,0,1,.07.51v.41a.81.81,0,0,1-.17.5h-.09a2.47,2.47,0,0,1-.38-.05,5.51,5.51,0,0,0-1.1-.12,3.2,3.2,0,0,0-.79.11h0a4,4,0,0,0-.76.26,1.32,1.32,0,0,0-.68.71.88.88,0,0,1-.18.34v.11c0,.16,0,.34,0,.57a4.64,4.64,0,0,0,0,.48,3.41,3.41,0,0,0,.22,1.09,3.45,3.45,0,0,1,.11.4,2.52,2.52,0,0,1,.29.26,2.83,2.83,0,0,0,.25.24,1.08,1.08,0,0,0,.34.18,4.69,4.69,0,0,0,1.2.17l.24,0,.66.05a3.54,3.54,0,0,1,.49.05.27.27,0,0,1,.21.12.78.78,0,0,1,.06.28c0,.18,0,.37,0,.57s0,.33,0,.49v.08a.49.49,0,0,1,0,.15.46.46,0,0,1-.29.13,2.22,2.22,0,0,1-.37,0l-.33,0A4.76,4.76,0,0,1,23.47,19.53Z"/><path class="cls-5" d="M28.34,19.53h-.42a.53.53,0,0,1-.16,0v0h0a4.71,4.71,0,0,1,0-.8v-.14c0-.28,0-.49,0-.63a2.53,2.53,0,0,1,0-.27.78.78,0,0,0,0-.14c0-.11,0-.58,0-1.41s0-1.43,0-1.86q0-1,0-1.2a14.17,14.17,0,0,1,.1-1.72,1.39,1.39,0,0,1,.44-.12h.25a1,1,0,0,1,.5.11,7.66,7.66,0,0,1,.1,1.23c0,.42,0,.77,0,1a3.59,3.59,0,0,1,0,.42q0,1.29.06,2.82c0,.49,0,.95,0,1.37h1l1.16,0h.24a4.25,4.25,0,0,1,1,.12,2.8,2.8,0,0,1,.07.7,1.56,1.56,0,0,1-.06.48.7.7,0,0,1-.23.05l-.47,0-.5,0-.32,0c-.43,0-.89,0-1.39,0H28.34Z"/><path class="cls-5" d="M35.83,19.53h-.61l-.27,0-.14,0-.53,0h-.15a1.57,1.57,0,0,1-.58-.1,2.92,2.92,0,0,1,0-.54,1.42,1.42,0,0,1,.06-.42.66.66,0,0,1,.21-.07l.33-.05h.19a.53.53,0,0,1,.2,0c0-.19,0-.35,0-.48a2.62,2.62,0,0,1,0-.27.71.71,0,0,0,0-.14c0-.11,0-.57,0-1.41s0-1.32,0-1.86,0-1,0-1.18,0-.44,0-.66H34.1a1.42,1.42,0,0,1-.55-.1,2.76,2.76,0,0,1,0-.54,1.31,1.31,0,0,1,.06-.41s.09-.05.22-.08a2.38,2.38,0,0,1,.34,0h.18l.19,0,.39,0a2.7,2.7,0,0,1,.45,0c.33,0,.53,0,.58.08l.15,0a.33.33,0,0,1,.15,0l.1,0h.16a.43.43,0,0,1,.24,0l0,.22v.4l0,.44a.7.7,0,0,1-.24,0h-.7c0,.42,0,.8,0,1.13s0,.36,0,.46c0,.86,0,1.79.06,2.8,0,.59,0,1.12,0,1.6l.06,0,.14,0,.16,0,.1,0h.16c.13,0,.21,0,.24.05l0,.21V19l0,.44a1,1,0,0,1-.27,0h-.59Z"/><path class="cls-5" d="M42.25,19.53a5.13,5.13,0,0,1-2.09-.46,3.58,3.58,0,0,1-.74-.47A2.56,2.56,0,0,1,38.37,17a1.09,1.09,0,0,0-.07-.24,3.91,3.91,0,0,1-.23-1.37v-.24A4.07,4.07,0,0,1,38.65,13a4,4,0,0,1,2-1.5,2.84,2.84,0,0,1,1-.23h.2a1.54,1.54,0,0,0,.5-.08l.3,0,.42,0c.19,0,.38,0,.59.05a2.22,2.22,0,0,1,.44.07,2.27,2.27,0,0,1,.08.51c0,.08,0,.21,0,.41a.76.76,0,0,1-.17.5H44a2.57,2.57,0,0,1-.39-.05,5.42,5.42,0,0,0-1.09-.12,3.27,3.27,0,0,0-.8.11h0a3.78,3.78,0,0,0-.76.26,1.28,1.28,0,0,0-.68.71A1.3,1.3,0,0,1,40,14v.11c0,.16,0,.34,0,.57a4.4,4.4,0,0,0,0,.48,3.41,3.41,0,0,0,.22,1.09c0,.14.08.27.11.4a2.38,2.38,0,0,1,.28.26c.08.09.17.16.25.24a1.2,1.2,0,0,0,.34.18,4.85,4.85,0,0,0,1.2.17l.24,0,.66.05a3.73,3.73,0,0,1,.5.05.27.27,0,0,1,.2.12A.78.78,0,0,1,44,18c0,.18,0,.37,0,.57a4.15,4.15,0,0,1,0,.49.25.25,0,0,1,0,.08.28.28,0,0,1,0,.15.46.46,0,0,1-.29.13,2.19,2.19,0,0,1-.36,0l-.33,0A5,5,0,0,1,42.25,19.53Z"/><path class="cls-5" d="M47.37,14.54A14.8,14.8,0,0,0,48,13.19c.23-.5.43-.94.62-1.29a3,3,0,0,0,.24-.54l0-.09a.07.07,0,0,1,.05,0,.49.49,0,0,1,.2,0,1.09,1.09,0,0,1,.26,0h0a.92.92,0,0,1,.26,0h.09a4.8,4.8,0,0,1,.57,0,.75.75,0,0,1-.1.33,1.79,1.79,0,0,1-.2.28l-.07.09-.16.27a1,1,0,0,1-.24.36c-.1.29-.27.68-.49,1.17-.16.34-.31.66-.43,1a2.52,2.52,0,0,0-.21.68l.15.31.31.66.3.67a3.64,3.64,0,0,1,.15.36,2.5,2.5,0,0,1,.18.33c.1.2.22.44.34.7s.24.5.33.72a2,2,0,0,1,.15.4H49.2l-.31,0a3.51,3.51,0,0,1-.23-.55c-.07-.19-.16-.4-.25-.63s-.21-.4-.43-.79-.5-.92-.69-1.3l0,.48a2.34,2.34,0,0,1,0,.45v.31c0,.17,0,.41,0,.74s0,.62-.05.87a1.62,1.62,0,0,1-.06.41,4.11,4.11,0,0,1-.53,0h-.28l-.48,0a14.08,14.08,0,0,1-.09-1.58c0-.23,0-.45,0-.68v0c0-.25,0-.5,0-.75,0-.43,0-.87,0-1.3,0-.14,0-.33,0-.58V13.31a.76.76,0,0,1,0-.15c0-.05,0-.1,0-.15a2.35,2.35,0,0,1,0-.26,2.18,2.18,0,0,0,0-.25c0-.15,0-.29,0-.41V12a4.26,4.26,0,0,1,0-.73l.45-.09.28,0h.22a1.49,1.49,0,0,1,.4.06.62.62,0,0,1,0,.25.81.81,0,0,1,0,.16.92.92,0,0,1,0,.16v.11a2.16,2.16,0,0,0,0,.28v.27c0,.2,0,.41,0,.64s0,.36,0,.51a.34.34,0,0,1,0,.16c0,.07,0,.13,0,.19Z"/><path class="cls-5" d="M58,19.63l-.47,0a.57.57,0,0,1-.33-.13,4.83,4.83,0,0,1,0-.52c0-.47,0-.94,0-1.42a13.13,13.13,0,0,1,.13-1.88,2,2,0,0,1,0-.39v-.8a2.32,2.32,0,0,0,0-.24c0-.16,0-.33,0-.5a1.33,1.33,0,0,1,0-.39,1.74,1.74,0,0,1,0-.43v-.22a8.08,8.08,0,0,0-.92,0H54.65a4.51,4.51,0,0,1-.06-.67,1.92,1.92,0,0,1,.08-.64,14.66,14.66,0,0,1,1.61-.16l4.88,0a3.44,3.44,0,0,1,.05.69,2,2,0,0,1,0,.3.48.48,0,0,1-.07.21.56.56,0,0,0-.09.14,7.28,7.28,0,0,0-.83,0,12.85,12.85,0,0,0-1.47,0l0,1.26,0,.49,0,2.63c0,.27,0,.57-.07.89a4.77,4.77,0,0,0-.06.76V19c0,.14,0,.28,0,.42S58.33,19.63,58,19.63Z"/><path class="cls-5" d="M64.58,19.71a2,2,0,0,1-1.79-.9,5,5,0,0,1-.42-1,10,10,0,0,1-.32-1.34,3.22,3.22,0,0,1,0-.5.92.92,0,0,1,.08-.42,1,1,0,0,1,0-.25,5.79,5.79,0,0,1,.1-.92,7.7,7.7,0,0,1,.35-1.28,1.76,1.76,0,0,1,.5-.86,1.67,1.67,0,0,1,.81-.8A3.18,3.18,0,0,1,65.14,11l.32,0,.31,0L66,11a3.6,3.6,0,0,1,.72.38,1.51,1.51,0,0,1,.58.54,1.36,1.36,0,0,1,.39.57c.1.26.19.51.26.75a2.29,2.29,0,0,0,.16.42l.12.59a5.23,5.23,0,0,1,.17,1.25,1.91,1.91,0,0,1,0,.21c0,.07,0,.13,0,.17a.37.37,0,0,0,0,.17,1.16,1.16,0,0,1,0,.16,1.2,1.2,0,0,1-.09.45c0,.09,0,.17-.07.26a3.85,3.85,0,0,1-.51,1.27,2.42,2.42,0,0,1-1,.94,3.09,3.09,0,0,1-1.24.48A4.75,4.75,0,0,1,64.58,19.71Zm.56-1.51a1.46,1.46,0,0,0,1.64-1.31c0-.13,0-.28.06-.44a6.43,6.43,0,0,0,.12-1,4.94,4.94,0,0,0-1.13-3.14.48.48,0,0,1-.18-.06.54.54,0,0,0-.25-.06,1.19,1.19,0,0,0-.28,0,3.55,3.55,0,0,0-.67.3,2.84,2.84,0,0,0-.64,1.23,5.47,5.47,0,0,0-.23,1.38v.66c0,.35,0,.68,0,1a1.49,1.49,0,0,1,.22.41,2.83,2.83,0,0,0,.33.63,1.31,1.31,0,0,0,.83.31Z"/><path class="cls-5" d="M77.27,19.53a5.13,5.13,0,0,1-2.09-.46,3.86,3.86,0,0,1-.74-.47,2.5,2.5,0,0,1-1-1.59,1.13,1.13,0,0,0-.08-.24,3.74,3.74,0,0,1-.22-1.37,1.93,1.93,0,0,1,0-.24A4.08,4.08,0,0,1,73.68,13a3.93,3.93,0,0,1,2-1.5,2.75,2.75,0,0,1,1-.23h.19a1.54,1.54,0,0,0,.5-.08,1.53,1.53,0,0,1,.3,0l.42,0c.19,0,.38,0,.59.05a2.22,2.22,0,0,1,.44.07,2.27,2.27,0,0,1,.08.51v.41a.88.88,0,0,1-.17.5H79a2.33,2.33,0,0,1-.38-.05,5.59,5.59,0,0,0-1.1-.12,3.27,3.27,0,0,0-.8.11h0a3.78,3.78,0,0,0-.76.26,1.28,1.28,0,0,0-.68.71,1.3,1.3,0,0,1-.18.34v.11a4.31,4.31,0,0,1,0,.57,4.4,4.4,0,0,0,0,.48,3.41,3.41,0,0,0,.22,1.09c0,.14.08.27.11.4a2.52,2.52,0,0,1,.29.26l.24.24a1.2,1.2,0,0,0,.34.18,4.87,4.87,0,0,0,1.21.17l.24,0,.65.05a3.73,3.73,0,0,1,.5.05.25.25,0,0,1,.2.12A.51.51,0,0,1,79,18c0,.18,0,.37,0,.57s0,.33,0,.49v.08a.28.28,0,0,1,0,.15.44.44,0,0,1-.29.13l-.36,0-.33,0A4.8,4.8,0,0,1,77.27,19.53Z"/><path class="cls-5" d="M82.9,19.71a2,2,0,0,1-1.79-.9,4,4,0,0,1-.42-1,10,10,0,0,1-.32-1.34,3.22,3.22,0,0,1,0-.5.94.94,0,0,1,.07-.42,1.93,1.93,0,0,1,0-.25,5.79,5.79,0,0,1,.1-.92,8.72,8.72,0,0,1,.34-1.28,1.84,1.84,0,0,1,.5-.86,1.7,1.7,0,0,1,.82-.8A3.13,3.13,0,0,1,83.46,11l.32,0,.3,0,.27.06a3.41,3.41,0,0,1,.73.38c.34.22.53.41.57.54a1.2,1.2,0,0,1,.39.57,6.86,6.86,0,0,1,.27.75,1.71,1.71,0,0,0,.16.42c0,.2.07.39.12.59a4.76,4.76,0,0,1,.16,1.25,1.77,1.77,0,0,1,0,.21c0,.07,0,.13,0,.17a.59.59,0,0,0,0,.17.46.46,0,0,1,0,.16,1.8,1.8,0,0,1-.09.45,2.5,2.5,0,0,0-.07.26,3.85,3.85,0,0,1-.51,1.27,2.49,2.49,0,0,1-1,.94,3.15,3.15,0,0,1-1.24.48A4.9,4.9,0,0,1,82.9,19.71Zm.56-1.51a1.46,1.46,0,0,0,1.64-1.31,4.16,4.16,0,0,1,.06-.44,7.57,7.57,0,0,0,.11-1,4.93,4.93,0,0,0-1.12-3.14.48.48,0,0,1-.18-.06.58.58,0,0,0-.26-.06,1.28,1.28,0,0,0-.28,0,4.32,4.32,0,0,0-.67.3,2.94,2.94,0,0,0-.63,1.23,5.47,5.47,0,0,0-.23,1.38v.66c0,.35,0,.68,0,1a1.86,1.86,0,0,1,.22.41,2.83,2.83,0,0,0,.33.63,1.26,1.26,0,0,0,.83.31Z"/><path class="cls-5" d="M93.21,19.53h-.89c-.21,0-.33,0-.36-.08a.64.64,0,0,1-.14-.22.54.54,0,0,0-.1-.18c0-.05-.13-.35-.37-.88l-.18-.39a4.51,4.51,0,0,1-.3-.7c-.12-.31-.18-.49-.2-.53a14.16,14.16,0,0,0-.71-1.8c-.16-.35-.28-.6-.37-.76q0,.88.06,1.47l0,2.31c0,.72,0,1.19,0,1.43v0a.23.23,0,0,1-.18.25l-.26,0H89l-.25,0-.14,0a5,5,0,0,1-.08-1.1v-.53c0-.5,0-1,0-1.61s0-1.11.06-1.59v-.48s0-.16,0-.39,0-.45,0-.67v-.53a5.15,5.15,0,0,1,0-.76v-.55a1.48,1.48,0,0,1,.29,0l.8,0h0a.29.29,0,0,1,.24.12.56.56,0,0,1,.12.27h0s.07.09.14.26a1.25,1.25,0,0,1,.07.34v0a1.48,1.48,0,0,1,.23.49c.08.22.15.39.2.51a1.92,1.92,0,0,1,.16.43,7.2,7.2,0,0,1,.56,1.22l.7,1.73c.09.21.15.36.19.44q-.09-1.05-.09-1.26a.85.85,0,0,1,0-.23v0h0l-.13-1.43c0-.26,0-.54,0-.84v-.62A7.81,7.81,0,0,0,92,11.42v-.2l.18,0h.14l.1,0a.7.7,0,0,1,.23,0H93c.09,0,.13,0,.13,0h.08l.09,0q0,.42,0,1c0,.64,0,1.39.07,2.26s.06,1.56.06,2.33c0,.36,0,.72,0,1.08v.55l0,.26a3.43,3.43,0,0,0,.08.56c0,.11,0,.18-.11.19A.55.55,0,0,1,93.21,19.53Z"/><path class="cls-5" d="M98.21,19.63l-.46,0c-.18,0-.29-.07-.33-.13a2.72,2.72,0,0,1,0-.52c0-.47,0-.94,0-1.42a11.63,11.63,0,0,1,.13-1.88,2,2,0,0,1,0-.39v-.8a2.09,2.09,0,0,0,0-.24c0-.16,0-.33,0-.5a1.27,1.27,0,0,1,0-.39,1.69,1.69,0,0,1,0-.43v-.1s0-.08,0-.12a7.89,7.89,0,0,0-.91,0H94.9a6.41,6.41,0,0,1-.06-.67,2.22,2.22,0,0,1,.08-.64,14.93,14.93,0,0,1,1.61-.16l4.88,0a2.81,2.81,0,0,1,0,.69v.3a.49.49,0,0,1-.08.21l-.08.14a7.4,7.4,0,0,0-.83,0,13,13,0,0,0-1.48,0l0,1.26,0,.49,0,2.63c0,.27,0,.57-.06.89a4.77,4.77,0,0,0-.06.76V19c0,.14,0,.28,0,.42S98.59,19.63,98.21,19.63Z"/><path class="cls-5" d="M104.82,19.53h-.61l-.27,0-.14,0-.53,0h-.16a1.61,1.61,0,0,1-.58-.1,4.26,4.26,0,0,1,0-.54,1.42,1.42,0,0,1,.06-.42s.09,0,.21-.07l.33-.05h.19a.56.56,0,0,1,.2,0c0-.19,0-.35,0-.48a2.62,2.62,0,0,1,0-.27s0-.09,0-.14,0-.57,0-1.41,0-1.32,0-1.86,0-1,0-1.18,0-.44,0-.66h-.3a1.49,1.49,0,0,1-.55-.1,4,4,0,0,1,0-.54,1.31,1.31,0,0,1,.06-.41s.09-.05.22-.08a2.43,2.43,0,0,1,.33,0h.19l.19,0,.39,0a2.7,2.7,0,0,1,.45,0c.33,0,.53,0,.58.08l.14,0a.4.4,0,0,1,.15,0l.1,0h.17a.43.43,0,0,1,.24,0l0,.22v.4l0,.44a.63.63,0,0,1-.23,0h-.7c0,.42,0,.8,0,1.13s0,.36,0,.46c0,.86,0,1.79.06,2.8,0,.59,0,1.12,0,1.6l.06,0,.14,0a.45.45,0,0,1,.16,0l.1,0h.16c.13,0,.21,0,.24.05l0,.21V19l0,.44a.91.91,0,0,1-.27,0h-.58Z"/><path class="cls-5" d="M112.38,19.53h-.89c-.21,0-.33,0-.36-.08a.83.83,0,0,1-.15-.22.38.38,0,0,0-.09-.18c0-.05-.14-.35-.37-.88l-.18-.39a4.51,4.51,0,0,1-.3-.7c-.12-.31-.19-.49-.2-.53a14.16,14.16,0,0,0-.71-1.8c-.16-.35-.29-.6-.37-.76,0,.59,0,1.08,0,1.47l.06,2.31c0,.72,0,1.19,0,1.43v0c0,.14,0,.22-.17.25l-.26,0h-.33l-.25,0-.14,0a4.26,4.26,0,0,1-.09-1.1v-.53c0-.5,0-1,0-1.61s0-1.11.06-1.59v-.48a2.84,2.84,0,0,1,0-.39c0-.23,0-.45,0-.67s0-.4,0-.53a4.39,4.39,0,0,1,0-.76v-.55a1.35,1.35,0,0,1,.28,0l.81,0h0a.27.27,0,0,1,.23.12.68.68,0,0,1,.13.27h0s.08.09.14.26a1.39,1.39,0,0,1,.08.34v0a1.71,1.71,0,0,1,.23.49c.08.22.14.39.2.51a4,4,0,0,1,.16.43,9.72,9.72,0,0,1,.56,1.22l.7,1.73c.09.21.15.36.19.44-.06-.7-.1-1.12-.1-1.26a.85.85,0,0,1,0-.23s0,0,0,0h0l-.12-1.43c0-.26,0-.54,0-.84v-.62a9.3,9.3,0,0,0-.08-1.23v-.2l.18,0h.13l.11,0a.69.69,0,0,1,.22,0h.43c.09,0,.13,0,.13,0h.08l.09,0c0,.28,0,.63,0,1,0,.64,0,1.39.07,2.26s.06,1.56.06,2.33c0,.36,0,.72,0,1.08,0,.18,0,.36,0,.55l0,.26a3.43,3.43,0,0,0,.07.56c0,.11,0,.18-.1.19A.55.55,0,0,1,112.38,19.53Z"/><path class="cls-5" d="M117.17,19.81a2.06,2.06,0,0,1-1.82-.93,4,4,0,0,1-.41-1,6.9,6.9,0,0,1-.32-1.82,1.11,1.11,0,0,1,.08-.49V15.5a1.34,1.34,0,0,1,0-.21V15.1l-.06-2.23a14.32,14.32,0,0,1,.11-1.72,1.37,1.37,0,0,1,.45-.12h.26a1.07,1.07,0,0,1,.51.11,3.14,3.14,0,0,1,.05.41c0,.25,0,.53,0,.86s0,.63,0,.91a4.31,4.31,0,0,1,0,.59c0,.65.05,1.07.05,1.27s0,.36,0,.56,0,.4,0,.59,0,.38,0,.55a2.14,2.14,0,0,1,.22.43,3.06,3.06,0,0,0,.34.63.87.87,0,0,0,.6.3l.45,0a2,2,0,0,0,1-.25,1.37,1.37,0,0,0,.71-1.1,14.75,14.75,0,0,0,.2-1.62c0-.22,0-.61,0-1.14s0-1.07,0-1.32a13.8,13.8,0,0,1,.1-1.69,1.21,1.21,0,0,1,.48-.12l.3,0a.94.94,0,0,1,.51.12,6.49,6.49,0,0,1,.11,1.26c0,.44,0,.8,0,1.07a3.8,3.8,0,0,1,0,.43c0,.74,0,1.25,0,1.51a1.25,1.25,0,0,1,0,.32l0,.18a.5.5,0,0,0,0,.18.61.61,0,0,1,0,.15,1.79,1.79,0,0,1-.09.46c0,.09,0,.17-.07.25a4,4,0,0,1-.53,1.31,2.49,2.49,0,0,1-1,1,2.81,2.81,0,0,1-1.13.46A5.83,5.83,0,0,1,117.17,19.81Z"/><path class="cls-5" d="M126.14,19.53h-.2c-.16,0-.47,0-.93,0h-1q-.42,0-.78,0c0-.18,0-.56-.05-1.13,0-1.09,0-2.05,0-2.89a9.16,9.16,0,0,1,.09-1.84,3.75,3.75,0,0,1,0-.68c0-.54,0-1.1.06-1.66a2.67,2.67,0,0,1,1.19-.14l.93,0h.87l.44,0a4.32,4.32,0,0,1,1.11.14,2.55,2.55,0,0,1,0,.87c0,.14-.09.21-.19.21h-3.17v1.18q0,.48,0,.93a2.23,2.23,0,0,0,0,.3,4.37,4.37,0,0,0,1.08.06l1.18,0a2.4,2.4,0,0,1,.8.13,2.79,2.79,0,0,1,.09.62.47.47,0,0,1-.11.36,2,2,0,0,1-1,.15h-.92l-1.09,0,0,1.78a14.3,14.3,0,0,0,2.15.1,5.09,5.09,0,0,1,1.23.07,1.13,1.13,0,0,1,.1.51,4,4,0,0,1-.06.54c0,.16-.1.26-.21.29a.85.85,0,0,1-.29,0h-.26Z"/></g></g></svg>